<?xml version="1.0" encoding="UTF-8" standalone="no"?><svg xmlns="http://www.w3.org/2000/svg" xmlns:xlink="http://www.w3.org/1999/xlink" contentScriptType="application/ecmascript" contentStyleType="text/css" height="1501px" preserveAspectRatio="none" style="width:2362px;height:1501px;" version="1.1" viewBox="0 0 2362 1501" width="2362px" zoomAndPan="magnify"><defs><filter height="300%" id="f17gmf4satftua" width="300%" x="-1" y="-1"><feGaussianBlur result="blurOut" stdDeviation="2.0"/><feColorMatrix in="blurOut" result="blurOut2" type="matrix" values="0 0 0 0 0 0 0 0 0 0 0 0 0 0 0 0 0 0 .4 0"/><feOffset dx="4.0" dy="4.0" in="blurOut2" result="blurOut3"/><feBlend in="SourceGraphic" in2="blurOut3" mode="normal"/></filter></defs><g><text fill="#000000" font-family="sans-serif" font-size="18" lengthAdjust="spacingAndGlyphs" textLength="318" x="1032" y="16.708">Diagramme des Classes vue Modele</text><!--cluster Modele--><polygon fill="#FFFFFF" filter="url(#f17gmf4satftua)" points="213,53.4531,276,53.4531,283,75.75,2340,75.75,2340,1441.4531,213,1441.4531,213,53.4531" style="stroke: #000000; stroke-width: 1.5;"/><line style="stroke: #000000; stroke-width: 1.5;" x1="213" x2="283" y1="75.75" y2="75.75"/><text fill="#000000" font-family="sans-serif" font-size="14" font-weight="bold" lengthAdjust="spacingAndGlyphs" textLength="57" x="217" y="68.4482">Modele</text><!--cluster modeleAgence<<Frame>>--><polygon fill="#FFFFFF" filter="url(#f17gmf4satftua)" points="245,655.4531,466,655.4531,473,677.75,507,677.75,507,806.4531,245,806.4531,245,655.4531" style="stroke: #000000; stroke-width: 1.5;"/><line style="stroke: #000000; stroke-width: 1.5;" x1="245" x2="473" y1="677.75" y2="677.75"/><text fill="#000000" font-family="sans-serif" font-size="14" font-weight="bold" lengthAdjust="spacingAndGlyphs" textLength="215" x="249" y="670.4482">modeleAgence&lt;&lt;Frame&gt;&gt;</text><!--cluster modeleClient--><rect fill="#FFFFFF" filter="url(#f17gmf4satftua)" height="392" style="stroke: #000000; stroke-width: 1.5;" width="1085.5" x="1222.5" y="553.4531"/><path d="M1335.5,554.4531 L1335.5,562.75 L1325.5,572.75 L1222.5,572.75 " fill="none" style="stroke: #000000; stroke-width: 1.5;"/><text fill="#000000" font-family="sans-serif" font-size="14" font-weight="bold" lengthAdjust="spacingAndGlyphs" textLength="103" x="1225.5" y="567.4482">modeleClient</text><!--cluster modeleBien--><rect fill="#FFFFFF" filter="url(#f17gmf4satftua)" height="432" style="stroke: #000000; stroke-width: 1.5;" width="1149" x="650" y="969.4531"/><path d="M752,970.4531 L752,978.75 L742,988.75 L650,988.75 " fill="none" style="stroke: #000000; stroke-width: 1.5;"/><text fill="#000000" font-family="sans-serif" font-size="14" font-weight="bold" lengthAdjust="spacingAndGlyphs" textLength="92" x="653" y="983.4482">modeleBien</text><!--cluster modeleRDV--><rect fill="#FFFFFF" filter="url(#f17gmf4satftua)" height="305" style="stroke: #000000; stroke-width: 1.5;" width="846" x="727" y="104.4531"/><path d="M827,105.4531 L827,113.75 L817,123.75 L727,123.75 " fill="none" style="stroke: #000000; stroke-width: 1.5;"/><text fill="#000000" font-family="sans-serif" font-size="14" font-weight="bold" lengthAdjust="spacingAndGlyphs" textLength="90" x="730" y="118.4482">modeleRDV</text><!--cluster modeleAutres--><rect fill="#FFFFFF" filter="url(#f17gmf4satftua)" height="449" style="stroke: #000000; stroke-width: 1.5;" width="357" x="627" y="433.4531"/><path d="M748,434.4531 L748,442.75 L738,452.75 L627,452.75 " fill="none" style="stroke: #000000; stroke-width: 1.5;"/><text fill="#000000" font-family="sans-serif" font-size="14" font-weight="bold" lengthAdjust="spacingAndGlyphs" textLength="111" x="630" y="447.4482">modeleAutres</text><!--class MyAgencyManager--><rect fill="#FEFECE" filter="url(#f17gmf4satftua)" height="99.2188" id="MyAgencyManager" style="stroke: #A80036; stroke-width: 1.5;" width="230" x="261" y="690.9531"/><ellipse cx="313.75" cy="706.9531" fill="#ADD1B2" rx="11" ry="11" style="stroke: #A80036; stroke-width: 1.0;"/><path d="M316.0938,702.625 L316.2656,702.7031 C316.4844,702.3906 316.6875,702.2969 316.9844,702.2969 C317.2813,702.2969 317.5625,702.4375 317.7188,702.7031 C317.8125,702.8594 317.8281,702.9844 317.8281,703.4219 L317.8281,704.8438 C317.8281,705.2656 317.7969,705.4531 317.6875,705.6094 C317.5156,705.8281 317.25,705.9688 316.9844,705.9688 C316.7656,705.9688 316.5313,705.8594 316.3906,705.7188 C316.25,705.5938 316.2188,705.4688 316.1563,705.0625 C316.0625,704.6563 315.8906,704.4375 315.4063,704.1563 C314.9375,703.9063 314.3281,703.75 313.75,703.75 C312.0156,703.75 310.7656,705.0625 310.7656,706.8438 L310.7656,707.9375 C310.7656,709.6406 312.0625,710.7344 314.1094,710.7344 C314.875,710.7344 315.5625,710.6094 315.9844,710.3438 C316.1719,710.25 316.1719,710.25 316.625,709.7656 C316.8125,709.5781 317.0156,709.5 317.2344,709.5 C317.7031,709.5 318.0938,709.8906 318.0938,710.3438 C318.0938,710.7344 317.7656,711.1875 317.1875,711.5938 C316.4375,712.1406 315.2813,712.4375 314.0625,712.4375 C311.1719,712.4375 309.0625,710.5469 309.0625,707.9688 L309.0625,706.8438 C309.0625,704.125 311.0625,702.0469 313.6875,702.0469 C314.5625,702.0469 315.1563,702.1875 316.0938,702.625 Z "/><text fill="#000000" font-family="sans-serif" font-size="12" lengthAdjust="spacingAndGlyphs" textLength="116" x="334.25" y="711.1074">MyAgencyManager</text><line style="stroke: #A80036; stroke-width: 1.5;" x1="262" x2="490" y1="722.9531" y2="722.9531"/><rect fill="none" height="6" style="stroke: #C82930; stroke-width: 1.0;" width="6" x="269" y="731.8555"/><text fill="#000000" font-family="sans-serif" font-size="11" lengthAdjust="spacingAndGlyphs" textLength="167" x="281" y="737.1636">ArrayList&lt;Client&gt; listeClients</text><rect fill="none" height="6" style="stroke: #C82930; stroke-width: 1.0;" width="6" x="269" y="744.6602"/><text fill="#000000" font-family="sans-serif" font-size="11" lengthAdjust="spacingAndGlyphs" textLength="185" x="281" y="749.9683">ArrayList&lt;Mandat&gt; listeMandats</text><rect fill="none" height="6" style="stroke: #C82930; stroke-width: 1.0;" width="6" x="269" y="757.4648"/><text fill="#000000" font-family="sans-serif" font-size="11" lengthAdjust="spacingAndGlyphs" textLength="204" x="281" y="762.7729">ArrayList&lt;Publicites&gt; listePublicites</text><rect fill="none" height="6" style="stroke: #C82930; stroke-width: 1.0;" width="6" x="269" y="770.2695"/><text fill="#000000" font-family="sans-serif" font-size="11" lengthAdjust="spacingAndGlyphs" textLength="145" x="281" y="775.5776">ArrayList&lt;RDV&gt; listeRdvs</text><line style="stroke: #A80036; stroke-width: 1.5;" x1="262" x2="490" y1="782.1719" y2="782.1719"/><!--class Client--><rect fill="#FEFECE" filter="url(#f17gmf4satftua)" height="124.8281" id="Client" style="stroke: #A80036; stroke-width: 1.5;" width="395" x="1238.5" y="803.9531"/><ellipse cx="1414.25" cy="819.9531" fill="#A9DCDF" rx="11" ry="11" style="stroke: #A80036; stroke-width: 1.0;"/><path d="M1415.8281,821.7656 L1411.7813,821.7656 L1411.3906,822.75 L1411.7813,822.75 C1412.2344,822.75 1412.375,822.7813 1412.5469,822.9063 C1412.7656,823.0781 1412.8906,823.3281 1412.8906,823.6094 C1412.8906,823.8906 1412.75,824.1875 1412.4844,824.3281 C1412.3594,824.4219 1412.1406,824.4531 1411.7813,824.4531 L1409.5156,824.4531 C1408.7656,824.4531 1408.3906,824.1719 1408.3906,823.6094 C1408.3906,823.3125 1408.5469,823.0313 1408.7969,822.875 C1408.9531,822.7656 1409.1094,822.75 1409.5313,822.75 L1412.1719,816.2344 L1411.0938,816.2344 C1410.6563,816.2344 1410.4844,816.2031 1410.3125,816.0938 C1410.0938,815.9219 1409.9531,815.6719 1409.9531,815.3906 C1409.9531,815.1094 1410.1094,814.8281 1410.3594,814.6563 C1410.5156,814.5625 1410.6406,814.5469 1411.0938,814.5469 L1414.7656,814.5469 L1418.1563,822.75 C1418.625,822.75 1418.7813,822.7813 1418.9531,822.9219 C1419.1719,823.0781 1419.3125,823.3281 1419.3125,823.6094 C1419.3125,823.8906 1419.1563,824.1875 1418.9063,824.3281 C1418.7656,824.4219 1418.5469,824.4531 1418.1875,824.4531 L1415.8281,824.4531 C1415.4063,824.4531 1415.2031,824.4063 1415.0625,824.2813 C1414.8438,824.125 1414.7031,823.875 1414.7031,823.6094 C1414.7031,823.3125 1414.8594,823.0313 1415.1094,822.875 C1415.2656,822.7656 1415.375,822.75 1415.8281,822.75 L1416.2188,822.75 Z M1415.125,820.0625 L1413.7969,816.7969 L1412.4531,820.0625 Z "/><text fill="#000000" font-family="sans-serif" font-size="12" font-style="italic" lengthAdjust="spacingAndGlyphs" textLength="35" x="1434.75" y="824.1074">Client</text><line style="stroke: #A80036; stroke-width: 1.5;" x1="1239.5" x2="1632.5" y1="835.9531" y2="835.9531"/><rect fill="none" height="6" style="stroke: #C82930; stroke-width: 1.0;" width="6" x="1246.5" y="844.8555"/><text fill="#000000" font-family="sans-serif" font-size="11" lengthAdjust="spacingAndGlyphs" textLength="63" x="1258.5" y="850.1636">String nom</text><rect fill="none" height="6" style="stroke: #C82930; stroke-width: 1.0;" width="6" x="1246.5" y="857.6602"/><text fill="#000000" font-family="sans-serif" font-size="11" lengthAdjust="spacingAndGlyphs" textLength="85" x="1258.5" y="862.9683">String adresse</text><rect fill="none" height="6" style="stroke: #C82930; stroke-width: 1.0;" width="6" x="1246.5" y="870.4648"/><text fill="#000000" font-family="sans-serif" font-size="11" lengthAdjust="spacingAndGlyphs" textLength="80" x="1258.5" y="875.7729">String numTel</text><rect fill="none" height="6" style="stroke: #C82930; stroke-width: 1.0;" width="6" x="1246.5" y="883.2695"/><text fill="#000000" font-family="sans-serif" font-size="11" lengthAdjust="spacingAndGlyphs" textLength="62" x="1258.5" y="888.5776">String mail</text><rect fill="none" height="6" style="stroke: #C82930; stroke-width: 1.0;" width="6" x="1246.5" y="896.0742"/><text fill="#000000" font-family="sans-serif" font-size="11" lengthAdjust="spacingAndGlyphs" textLength="105" x="1258.5" y="901.3823">Recherche souhait</text><line style="stroke: #A80036; stroke-width: 1.5;" x1="1239.5" x2="1632.5" y1="907.9766" y2="907.9766"/><ellipse cx="1249.5" cy="919.8789" fill="#84BE84" rx="3" ry="3" style="stroke: #038048; stroke-width: 1.0;"/><text fill="#000000" font-family="sans-serif" font-size="11" lengthAdjust="spacingAndGlyphs" textLength="369" x="1258.5" y="922.187">void Client(String nom,String adresse,String numTel,String mail)</text><!--class ClientPhysique--><rect fill="#FEFECE" filter="url(#f17gmf4satftua)" height="60.8047" id="ClientPhysique" style="stroke: #A80036; stroke-width: 1.5;" width="446" x="1846" y="859.9531"/><ellipse cx="2019.25" cy="875.9531" fill="#ADD1B2" rx="11" ry="11" style="stroke: #A80036; stroke-width: 1.0;"/><path d="M2021.5938,871.625 L2021.7656,871.7031 C2021.9844,871.3906 2022.1875,871.2969 2022.4844,871.2969 C2022.7813,871.2969 2023.0625,871.4375 2023.2188,871.7031 C2023.3125,871.8594 2023.3281,871.9844 2023.3281,872.4219 L2023.3281,873.8438 C2023.3281,874.2656 2023.2969,874.4531 2023.1875,874.6094 C2023.0156,874.8281 2022.75,874.9688 2022.4844,874.9688 C2022.2656,874.9688 2022.0313,874.8594 2021.8906,874.7188 C2021.75,874.5938 2021.7188,874.4688 2021.6563,874.0625 C2021.5625,873.6563 2021.3906,873.4375 2020.9063,873.1563 C2020.4375,872.9063 2019.8281,872.75 2019.25,872.75 C2017.5156,872.75 2016.2656,874.0625 2016.2656,875.8438 L2016.2656,876.9375 C2016.2656,878.6406 2017.5625,879.7344 2019.6094,879.7344 C2020.375,879.7344 2021.0625,879.6094 2021.4844,879.3438 C2021.6719,879.25 2021.6719,879.25 2022.125,878.7656 C2022.3125,878.5781 2022.5156,878.5 2022.7344,878.5 C2023.2031,878.5 2023.5938,878.8906 2023.5938,879.3438 C2023.5938,879.7344 2023.2656,880.1875 2022.6875,880.5938 C2021.9375,881.1406 2020.7813,881.4375 2019.5625,881.4375 C2016.6719,881.4375 2014.5625,879.5469 2014.5625,876.9688 L2014.5625,875.8438 C2014.5625,873.125 2016.5625,871.0469 2019.1875,871.0469 C2020.0625,871.0469 2020.6563,871.1875 2021.5938,871.625 Z "/><text fill="#000000" font-family="sans-serif" font-size="12" lengthAdjust="spacingAndGlyphs" textLength="91" x="2039.75" y="880.1074">ClientPhysique</text><line style="stroke: #A80036; stroke-width: 1.5;" x1="1847" x2="2291" y1="891.9531" y2="891.9531"/><line style="stroke: #A80036; stroke-width: 1.5;" x1="1847" x2="2291" y1="899.9531" y2="899.9531"/><ellipse cx="1857" cy="911.8555" fill="#84BE84" rx="3" ry="3" style="stroke: #038048; stroke-width: 1.0;"/><text fill="#000000" font-family="sans-serif" font-size="11" lengthAdjust="spacingAndGlyphs" textLength="420" x="1866" y="914.1636">void ClientPhysique(String nom,String adresse,String numTel,String mail)</text><!--class ClientMoral--><rect fill="#FEFECE" filter="url(#f17gmf4satftua)" height="86.4141" id="ClientMoral" style="stroke: #A80036; stroke-width: 1.5;" width="271" x="1933.5" y="738.4531"/><ellipse cx="2030.25" cy="754.4531" fill="#ADD1B2" rx="11" ry="11" style="stroke: #A80036; stroke-width: 1.0;"/><path d="M2032.5938,750.125 L2032.7656,750.2031 C2032.9844,749.8906 2033.1875,749.7969 2033.4844,749.7969 C2033.7813,749.7969 2034.0625,749.9375 2034.2188,750.2031 C2034.3125,750.3594 2034.3281,750.4844 2034.3281,750.9219 L2034.3281,752.3438 C2034.3281,752.7656 2034.2969,752.9531 2034.1875,753.1094 C2034.0156,753.3281 2033.75,753.4688 2033.4844,753.4688 C2033.2656,753.4688 2033.0313,753.3594 2032.8906,753.2188 C2032.75,753.0938 2032.7188,752.9688 2032.6563,752.5625 C2032.5625,752.1563 2032.3906,751.9375 2031.9063,751.6563 C2031.4375,751.4063 2030.8281,751.25 2030.25,751.25 C2028.5156,751.25 2027.2656,752.5625 2027.2656,754.3438 L2027.2656,755.4375 C2027.2656,757.1406 2028.5625,758.2344 2030.6094,758.2344 C2031.375,758.2344 2032.0625,758.1094 2032.4844,757.8438 C2032.6719,757.75 2032.6719,757.75 2033.125,757.2656 C2033.3125,757.0781 2033.5156,757 2033.7344,757 C2034.2031,757 2034.5938,757.3906 2034.5938,757.8438 C2034.5938,758.2344 2034.2656,758.6875 2033.6875,759.0938 C2032.9375,759.6406 2031.7813,759.9375 2030.5625,759.9375 C2027.6719,759.9375 2025.5625,758.0469 2025.5625,755.4688 L2025.5625,754.3438 C2025.5625,751.625 2027.5625,749.5469 2030.1875,749.5469 C2031.0625,749.5469 2031.6563,749.6875 2032.5938,750.125 Z "/><text fill="#000000" font-family="sans-serif" font-size="12" lengthAdjust="spacingAndGlyphs" textLength="69" x="2050.75" y="758.6074">ClientMoral</text><line style="stroke: #A80036; stroke-width: 1.5;" x1="1934.5" x2="2203.5" y1="770.4531" y2="770.4531"/><rect fill="none" height="6" style="stroke: #C82930; stroke-width: 1.0;" width="6" x="1941.5" y="779.3555"/><text fill="#000000" font-family="sans-serif" font-size="11" lengthAdjust="spacingAndGlyphs" textLength="121" x="1953.5" y="784.6636">String formeJuridique</text><rect fill="none" height="6" style="stroke: #C82930; stroke-width: 1.0;" width="6" x="1941.5" y="792.1602"/><text fill="#000000" font-family="sans-serif" font-size="11" lengthAdjust="spacingAndGlyphs" textLength="78" x="1953.5" y="797.4683">String nSIREN</text><line style="stroke: #A80036; stroke-width: 1.5;" x1="1934.5" x2="2203.5" y1="804.0625" y2="804.0625"/><ellipse cx="1944.5" cy="815.9648" fill="#84BE84" rx="3" ry="3" style="stroke: #038048; stroke-width: 1.0;"/><text fill="#000000" font-family="sans-serif" font-size="11" lengthAdjust="spacingAndGlyphs" textLength="245" x="1953.5" y="818.2729">void ClientMoral(String juridic, String siren)</text><!--class Recherche--><rect fill="#FEFECE" filter="url(#f17gmf4satftua)" height="163.2422" id="Recherche" style="stroke: #A80036; stroke-width: 1.5;" width="178" x="1347" y="588.9531"/><ellipse cx="1398.25" cy="604.9531" fill="#ADD1B2" rx="11" ry="11" style="stroke: #A80036; stroke-width: 1.0;"/><path d="M1400.5938,600.625 L1400.7656,600.7031 C1400.9844,600.3906 1401.1875,600.2969 1401.4844,600.2969 C1401.7813,600.2969 1402.0625,600.4375 1402.2188,600.7031 C1402.3125,600.8594 1402.3281,600.9844 1402.3281,601.4219 L1402.3281,602.8438 C1402.3281,603.2656 1402.2969,603.4531 1402.1875,603.6094 C1402.0156,603.8281 1401.75,603.9688 1401.4844,603.9688 C1401.2656,603.9688 1401.0313,603.8594 1400.8906,603.7188 C1400.75,603.5938 1400.7188,603.4688 1400.6563,603.0625 C1400.5625,602.6563 1400.3906,602.4375 1399.9063,602.1563 C1399.4375,601.9063 1398.8281,601.75 1398.25,601.75 C1396.5156,601.75 1395.2656,603.0625 1395.2656,604.8438 L1395.2656,605.9375 C1395.2656,607.6406 1396.5625,608.7344 1398.6094,608.7344 C1399.375,608.7344 1400.0625,608.6094 1400.4844,608.3438 C1400.6719,608.25 1400.6719,608.25 1401.125,607.7656 C1401.3125,607.5781 1401.5156,607.5 1401.7344,607.5 C1402.2031,607.5 1402.5938,607.8906 1402.5938,608.3438 C1402.5938,608.7344 1402.2656,609.1875 1401.6875,609.5938 C1400.9375,610.1406 1399.7813,610.4375 1398.5625,610.4375 C1395.6719,610.4375 1393.5625,608.5469 1393.5625,605.9688 L1393.5625,604.8438 C1393.5625,602.125 1395.5625,600.0469 1398.1875,600.0469 C1399.0625,600.0469 1399.6563,600.1875 1400.5938,600.625 Z "/><text fill="#000000" font-family="sans-serif" font-size="12" lengthAdjust="spacingAndGlyphs" textLength="67" x="1418.75" y="609.1074">Recherche</text><line style="stroke: #A80036; stroke-width: 1.5;" x1="1348" x2="1524" y1="620.9531" y2="620.9531"/><rect fill="none" height="6" style="stroke: #C82930; stroke-width: 1.0;" width="6" x="1355" y="629.8555"/><text fill="#000000" font-family="sans-serif" font-size="11" lengthAdjust="spacingAndGlyphs" textLength="100" x="1367" y="635.1636">Orientation orient</text><rect fill="none" height="6" style="stroke: #C82930; stroke-width: 1.0;" width="6" x="1355" y="642.6602"/><text fill="#000000" font-family="sans-serif" font-size="11" lengthAdjust="spacingAndGlyphs" textLength="120" x="1367" y="647.9683">double surfaceTotale</text><rect fill="none" height="6" style="stroke: #C82930; stroke-width: 1.0;" width="6" x="1355" y="655.4648"/><text fill="#000000" font-family="sans-serif" font-size="11" lengthAdjust="spacingAndGlyphs" textLength="132" x="1367" y="660.7729">double longueurFacade</text><rect fill="none" height="6" style="stroke: #C82930; stroke-width: 1.0;" width="6" x="1355" y="668.2695"/><text fill="#000000" font-family="sans-serif" font-size="11" lengthAdjust="spacingAndGlyphs" textLength="138" x="1367" y="673.5776">double surfaceHabitable</text><rect fill="none" height="6" style="stroke: #C82930; stroke-width: 1.0;" width="6" x="1355" y="681.0742"/><text fill="#000000" font-family="sans-serif" font-size="11" lengthAdjust="spacingAndGlyphs" textLength="64" x="1367" y="686.3823">int nbEtage</text><rect fill="none" height="6" style="stroke: #C82930; stroke-width: 1.0;" width="6" x="1355" y="693.8789"/><text fill="#000000" font-family="sans-serif" font-size="11" lengthAdjust="spacingAndGlyphs" textLength="113" x="1367" y="699.187">String moyenChauff</text><rect fill="none" height="6" style="stroke: #C82930; stroke-width: 1.0;" width="6" x="1355" y="706.6836"/><text fill="#000000" font-family="sans-serif" font-size="11" lengthAdjust="spacingAndGlyphs" textLength="62" x="1367" y="711.9917">int nbPiece</text><rect fill="none" height="6" style="stroke: #C82930; stroke-width: 1.0;" width="6" x="1355" y="719.4883"/><text fill="#000000" font-family="sans-serif" font-size="11" lengthAdjust="spacingAndGlyphs" textLength="50" x="1367" y="724.7964">int etage</text><rect fill="none" height="6" style="stroke: #C82930; stroke-width: 1.0;" width="6" x="1355" y="732.293"/><text fill="#000000" font-family="sans-serif" font-size="11" lengthAdjust="spacingAndGlyphs" textLength="152" x="1367" y="737.6011">double chargesMensuelles</text><line style="stroke: #A80036; stroke-width: 1.5;" x1="1348" x2="1524" y1="744.1953" y2="744.1953"/><!--class Orientation--><rect fill="#FEFECE" filter="url(#f17gmf4satftua)" height="99.2188" id="Orientation" style="stroke: #A80036; stroke-width: 1.5;" width="102" x="754.5" y="1004.9531"/><ellipse cx="769.5" cy="1020.9531" fill="#EB937F" rx="11" ry="11" style="stroke: #A80036; stroke-width: 1.0;"/><path d="M767.7969,1021.8281 L767.7969,1024.25 L772.1563,1024.25 L772.1563,1023.375 C772.1563,1022.8906 772.1875,1022.75 772.2969,1022.5938 C772.4688,1022.3438 772.7344,1022.2344 773,1022.2344 C773.2813,1022.2344 773.5625,1022.3906 773.7344,1022.6406 C773.8125,1022.7969 773.8438,1022.9375 773.8438,1023.375 L773.8438,1025.9531 L765.8438,1025.9531 C765.4531,1025.9531 765.2188,1025.9063 765.0781,1025.7813 C764.8594,1025.625 764.7188,1025.375 764.7188,1025.1094 C764.7188,1024.8125 764.875,1024.5469 765.125,1024.375 C765.2813,1024.2656 765.4375,1024.25 765.8438,1024.25 L766.0938,1024.25 L766.0938,1017.7344 L765.8438,1017.7344 C765.4219,1017.7344 765.2344,1017.7031 765.0781,1017.5938 C764.8594,1017.4219 764.7188,1017.1719 764.7188,1016.8906 C764.7188,1016.6094 764.875,1016.3125 765.125,1016.1563 C765.2813,1016.0625 765.4063,1016.0469 765.8438,1016.0469 L773.4688,1016.0469 L773.4688,1018.5938 C773.4688,1019.0625 773.4375,1019.2031 773.3281,1019.375 C773.1563,1019.5938 772.8906,1019.7344 772.625,1019.7344 C772.3438,1019.7344 772.0625,1019.5781 771.8906,1019.3281 C771.8125,1019.1719 771.7813,1019 771.7813,1018.5938 L771.7813,1017.7344 L767.7969,1017.7344 L767.7969,1020.1406 L769.25,1020.1406 L769.25,1020.0156 C769.25,1019.5625 769.2813,1019.4063 769.3906,1019.2344 C769.5625,1019.0156 769.8281,1018.875 770.0781,1018.875 C770.5313,1018.875 770.8438,1019.1875 770.9063,1019.6563 C770.9219,1019.8125 770.9219,1019.8594 770.9219,1020.0156 L770.9219,1021.9375 C770.9219,1022.3906 770.8906,1022.5469 770.7656,1022.7031 C770.6094,1022.9219 770.3438,1023.0625 770.0938,1023.0625 C769.7969,1023.0625 769.5156,1022.9063 769.3594,1022.6563 C769.2813,1022.5 769.25,1022.3438 769.25,1021.9375 L769.25,1021.8281 Z "/><text fill="#000000" font-family="sans-serif" font-size="12" lengthAdjust="spacingAndGlyphs" textLength="70" x="783.5" y="1025.1074">Orientation</text><line style="stroke: #A80036; stroke-width: 1.5;" x1="755.5" x2="855.5" y1="1036.9531" y2="1036.9531"/><text fill="#000000" font-family="sans-serif" font-size="11" lengthAdjust="spacingAndGlyphs" textLength="32" x="760.5" y="1051.1636">NORD</text><text fill="#000000" font-family="sans-serif" font-size="11" lengthAdjust="spacingAndGlyphs" textLength="24" x="760.5" y="1063.9683">SUD</text><text fill="#000000" font-family="sans-serif" font-size="11" lengthAdjust="spacingAndGlyphs" textLength="22" x="760.5" y="1076.7729">EST</text><text fill="#000000" font-family="sans-serif" font-size="11" lengthAdjust="spacingAndGlyphs" textLength="39" x="760.5" y="1089.5776">OUEST</text><line style="stroke: #A80036; stroke-width: 1.5;" x1="755.5" x2="855.5" y1="1096.1719" y2="1096.1719"/><!--class Bien--><rect fill="#FEFECE" filter="url(#f17gmf4satftua)" height="99.2188" id="Bien" style="stroke: #A80036; stroke-width: 1.5;" width="279" x="666" y="1155.9531"/><ellipse cx="787.75" cy="1171.9531" fill="#A9DCDF" rx="11" ry="11" style="stroke: #A80036; stroke-width: 1.0;"/><path d="M789.3281,1173.7656 L785.2813,1173.7656 L784.8906,1174.75 L785.2813,1174.75 C785.7344,1174.75 785.875,1174.7813 786.0469,1174.9063 C786.2656,1175.0781 786.3906,1175.3281 786.3906,1175.6094 C786.3906,1175.8906 786.25,1176.1875 785.9844,1176.3281 C785.8594,1176.4219 785.6406,1176.4531 785.2813,1176.4531 L783.0156,1176.4531 C782.2656,1176.4531 781.8906,1176.1719 781.8906,1175.6094 C781.8906,1175.3125 782.0469,1175.0313 782.2969,1174.875 C782.4531,1174.7656 782.6094,1174.75 783.0313,1174.75 L785.6719,1168.2344 L784.5938,1168.2344 C784.1563,1168.2344 783.9844,1168.2031 783.8125,1168.0938 C783.5938,1167.9219 783.4531,1167.6719 783.4531,1167.3906 C783.4531,1167.1094 783.6094,1166.8281 783.8594,1166.6563 C784.0156,1166.5625 784.1406,1166.5469 784.5938,1166.5469 L788.2656,1166.5469 L791.6563,1174.75 C792.125,1174.75 792.2813,1174.7813 792.4531,1174.9219 C792.6719,1175.0781 792.8125,1175.3281 792.8125,1175.6094 C792.8125,1175.8906 792.6563,1176.1875 792.4063,1176.3281 C792.2656,1176.4219 792.0469,1176.4531 791.6875,1176.4531 L789.3281,1176.4531 C788.9063,1176.4531 788.7031,1176.4063 788.5625,1176.2813 C788.3438,1176.125 788.2031,1175.875 788.2031,1175.6094 C788.2031,1175.3125 788.3594,1175.0313 788.6094,1174.875 C788.7656,1174.7656 788.875,1174.75 789.3281,1174.75 L789.7188,1174.75 Z M788.625,1172.0625 L787.2969,1168.7969 L785.9531,1172.0625 Z "/><text fill="#000000" font-family="sans-serif" font-size="12" font-style="italic" lengthAdjust="spacingAndGlyphs" textLength="27" x="808.25" y="1176.1074">Bien</text><line style="stroke: #A80036; stroke-width: 1.5;" x1="667" x2="944" y1="1187.9531" y2="1187.9531"/><rect fill="none" height="6" style="stroke: #C82930; stroke-width: 1.0;" width="6" x="674" y="1196.8555"/><text fill="#000000" font-family="sans-serif" font-size="11" lengthAdjust="spacingAndGlyphs" textLength="28" x="686" y="1202.1636">int id</text><rect fill="none" height="6" style="stroke: #C82930; stroke-width: 1.0;" width="6" x="674" y="1209.6602"/><text fill="#000000" font-family="sans-serif" font-size="11" lengthAdjust="spacingAndGlyphs" textLength="85" x="686" y="1214.9683">String adresse</text><rect fill="none" height="6" style="stroke: #C82930; stroke-width: 1.0;" width="6" x="674" y="1222.4648"/><text fill="#000000" font-family="sans-serif" font-size="11" lengthAdjust="spacingAndGlyphs" textLength="100" x="686" y="1227.7729">Orientation orient</text><line style="stroke: #A80036; stroke-width: 1.5;" x1="667" x2="944" y1="1234.3672" y2="1234.3672"/><ellipse cx="677" cy="1246.2695" fill="#84BE84" rx="3" ry="3" style="stroke: #038048; stroke-width: 1.0;"/><text fill="#000000" font-family="sans-serif" font-size="11" lengthAdjust="spacingAndGlyphs" textLength="253" x="686" y="1248.5776">void Bien(String adresse, Orientation orient)</text><!--class Terrain--><rect fill="#FEFECE" filter="url(#f17gmf4satftua)" height="86.4141" id="Terrain" style="stroke: #A80036; stroke-width: 1.5;" width="517" x="1177.5" y="1299.4531"/><ellipse cx="1409.75" cy="1315.4531" fill="#ADD1B2" rx="11" ry="11" style="stroke: #A80036; stroke-width: 1.0;"/><path d="M1412.0938,1311.125 L1412.2656,1311.2031 C1412.4844,1310.8906 1412.6875,1310.7969 1412.9844,1310.7969 C1413.2813,1310.7969 1413.5625,1310.9375 1413.7188,1311.2031 C1413.8125,1311.3594 1413.8281,1311.4844 1413.8281,1311.9219 L1413.8281,1313.3438 C1413.8281,1313.7656 1413.7969,1313.9531 1413.6875,1314.1094 C1413.5156,1314.3281 1413.25,1314.4688 1412.9844,1314.4688 C1412.7656,1314.4688 1412.5313,1314.3594 1412.3906,1314.2188 C1412.25,1314.0938 1412.2188,1313.9688 1412.1563,1313.5625 C1412.0625,1313.1563 1411.8906,1312.9375 1411.4063,1312.6563 C1410.9375,1312.4063 1410.3281,1312.25 1409.75,1312.25 C1408.0156,1312.25 1406.7656,1313.5625 1406.7656,1315.3438 L1406.7656,1316.4375 C1406.7656,1318.1406 1408.0625,1319.2344 1410.1094,1319.2344 C1410.875,1319.2344 1411.5625,1319.1094 1411.9844,1318.8438 C1412.1719,1318.75 1412.1719,1318.75 1412.625,1318.2656 C1412.8125,1318.0781 1413.0156,1318 1413.2344,1318 C1413.7031,1318 1414.0938,1318.3906 1414.0938,1318.8438 C1414.0938,1319.2344 1413.7656,1319.6875 1413.1875,1320.0938 C1412.4375,1320.6406 1411.2813,1320.9375 1410.0625,1320.9375 C1407.1719,1320.9375 1405.0625,1319.0469 1405.0625,1316.4688 L1405.0625,1315.3438 C1405.0625,1312.625 1407.0625,1310.5469 1409.6875,1310.5469 C1410.5625,1310.5469 1411.1563,1310.6875 1412.0938,1311.125 Z "/><text fill="#000000" font-family="sans-serif" font-size="12" lengthAdjust="spacingAndGlyphs" textLength="44" x="1430.25" y="1319.6074">Terrain</text><line style="stroke: #A80036; stroke-width: 1.5;" x1="1178.5" x2="1693.5" y1="1331.4531" y2="1331.4531"/><rect fill="none" height="6" style="stroke: #C82930; stroke-width: 1.0;" width="6" x="1185.5" y="1340.3555"/><text fill="#000000" font-family="sans-serif" font-size="11" lengthAdjust="spacingAndGlyphs" textLength="120" x="1197.5" y="1345.6636">double surfaceTotale</text><rect fill="none" height="6" style="stroke: #C82930; stroke-width: 1.0;" width="6" x="1185.5" y="1353.1602"/><text fill="#000000" font-family="sans-serif" font-size="11" lengthAdjust="spacingAndGlyphs" textLength="132" x="1197.5" y="1358.4683">double longueurFacade</text><line style="stroke: #A80036; stroke-width: 1.5;" x1="1178.5" x2="1693.5" y1="1365.0625" y2="1365.0625"/><ellipse cx="1188.5" cy="1376.9648" fill="#84BE84" rx="3" ry="3" style="stroke: #038048; stroke-width: 1.0;"/><text fill="#000000" font-family="sans-serif" font-size="11" lengthAdjust="spacingAndGlyphs" textLength="491" x="1197.5" y="1379.2729">void Terrain(String adresse, Orientation orient,double surfaceTotal, double lgrFacade)</text><!--class Maison--><rect fill="#FEFECE" filter="url(#f17gmf4satftua)" height="124.8281" id="Maison" style="stroke: #A80036; stroke-width: 1.5;" width="694" x="1089" y="1138.9531"/><ellipse cx="1409.75" cy="1154.9531" fill="#ADD1B2" rx="11" ry="11" style="stroke: #A80036; stroke-width: 1.0;"/><path d="M1412.0938,1150.625 L1412.2656,1150.7031 C1412.4844,1150.3906 1412.6875,1150.2969 1412.9844,1150.2969 C1413.2813,1150.2969 1413.5625,1150.4375 1413.7188,1150.7031 C1413.8125,1150.8594 1413.8281,1150.9844 1413.8281,1151.4219 L1413.8281,1152.8438 C1413.8281,1153.2656 1413.7969,1153.4531 1413.6875,1153.6094 C1413.5156,1153.8281 1413.25,1153.9688 1412.9844,1153.9688 C1412.7656,1153.9688 1412.5313,1153.8594 1412.3906,1153.7188 C1412.25,1153.5938 1412.2188,1153.4688 1412.1563,1153.0625 C1412.0625,1152.6563 1411.8906,1152.4375 1411.4063,1152.1563 C1410.9375,1151.9063 1410.3281,1151.75 1409.75,1151.75 C1408.0156,1151.75 1406.7656,1153.0625 1406.7656,1154.8438 L1406.7656,1155.9375 C1406.7656,1157.6406 1408.0625,1158.7344 1410.1094,1158.7344 C1410.875,1158.7344 1411.5625,1158.6094 1411.9844,1158.3438 C1412.1719,1158.25 1412.1719,1158.25 1412.625,1157.7656 C1412.8125,1157.5781 1413.0156,1157.5 1413.2344,1157.5 C1413.7031,1157.5 1414.0938,1157.8906 1414.0938,1158.3438 C1414.0938,1158.7344 1413.7656,1159.1875 1413.1875,1159.5938 C1412.4375,1160.1406 1411.2813,1160.4375 1410.0625,1160.4375 C1407.1719,1160.4375 1405.0625,1158.5469 1405.0625,1155.9688 L1405.0625,1154.8438 C1405.0625,1152.125 1407.0625,1150.0469 1409.6875,1150.0469 C1410.5625,1150.0469 1411.1563,1150.1875 1412.0938,1150.625 Z "/><text fill="#000000" font-family="sans-serif" font-size="12" lengthAdjust="spacingAndGlyphs" textLength="44" x="1430.25" y="1159.1074">Maison</text><line style="stroke: #A80036; stroke-width: 1.5;" x1="1090" x2="1782" y1="1170.9531" y2="1170.9531"/><rect fill="none" height="6" style="stroke: #C82930; stroke-width: 1.0;" width="6" x="1097" y="1179.8555"/><text fill="#000000" font-family="sans-serif" font-size="11" lengthAdjust="spacingAndGlyphs" textLength="83" x="1109" y="1185.1636">Terrain terrain</text><rect fill="none" height="6" style="stroke: #C82930; stroke-width: 1.0;" width="6" x="1097" y="1192.6602"/><text fill="#000000" font-family="sans-serif" font-size="11" lengthAdjust="spacingAndGlyphs" textLength="138" x="1109" y="1197.9683">double surfaceHabitable</text><rect fill="none" height="6" style="stroke: #C82930; stroke-width: 1.0;" width="6" x="1097" y="1205.4648"/><text fill="#000000" font-family="sans-serif" font-size="11" lengthAdjust="spacingAndGlyphs" textLength="62" x="1109" y="1210.7729">int nbPiece</text><rect fill="none" height="6" style="stroke: #C82930; stroke-width: 1.0;" width="6" x="1097" y="1218.2695"/><text fill="#000000" font-family="sans-serif" font-size="11" lengthAdjust="spacingAndGlyphs" textLength="64" x="1109" y="1223.5776">int nbEtage</text><rect fill="none" height="6" style="stroke: #C82930; stroke-width: 1.0;" width="6" x="1097" y="1231.0742"/><text fill="#000000" font-family="sans-serif" font-size="11" lengthAdjust="spacingAndGlyphs" textLength="113" x="1109" y="1236.3823">String moyenChauff</text><line style="stroke: #A80036; stroke-width: 1.5;" x1="1090" x2="1782" y1="1242.9766" y2="1242.9766"/><ellipse cx="1100" cy="1254.8789" fill="#84BE84" rx="3" ry="3" style="stroke: #038048; stroke-width: 1.0;"/><text fill="#000000" font-family="sans-serif" font-size="11" lengthAdjust="spacingAndGlyphs" textLength="668" x="1109" y="1257.187">void Maison(String adresse, Orientation orient,double surfaceHabit, int piece, int etage, String chauff,Terrain terrain)</text><!--class Appartement--><rect fill="#FEFECE" filter="url(#f17gmf4satftua)" height="99.2188" id="Appartement" style="stroke: #A80036; stroke-width: 1.5;" width="533" x="1169.5" y="1004.9531"/><ellipse cx="1390.75" cy="1020.9531" fill="#ADD1B2" rx="11" ry="11" style="stroke: #A80036; stroke-width: 1.0;"/><path d="M1393.0938,1016.625 L1393.2656,1016.7031 C1393.4844,1016.3906 1393.6875,1016.2969 1393.9844,1016.2969 C1394.2813,1016.2969 1394.5625,1016.4375 1394.7188,1016.7031 C1394.8125,1016.8594 1394.8281,1016.9844 1394.8281,1017.4219 L1394.8281,1018.8438 C1394.8281,1019.2656 1394.7969,1019.4531 1394.6875,1019.6094 C1394.5156,1019.8281 1394.25,1019.9688 1393.9844,1019.9688 C1393.7656,1019.9688 1393.5313,1019.8594 1393.3906,1019.7188 C1393.25,1019.5938 1393.2188,1019.4688 1393.1563,1019.0625 C1393.0625,1018.6563 1392.8906,1018.4375 1392.4063,1018.1563 C1391.9375,1017.9063 1391.3281,1017.75 1390.75,1017.75 C1389.0156,1017.75 1387.7656,1019.0625 1387.7656,1020.8438 L1387.7656,1021.9375 C1387.7656,1023.6406 1389.0625,1024.7344 1391.1094,1024.7344 C1391.875,1024.7344 1392.5625,1024.6094 1392.9844,1024.3438 C1393.1719,1024.25 1393.1719,1024.25 1393.625,1023.7656 C1393.8125,1023.5781 1394.0156,1023.5 1394.2344,1023.5 C1394.7031,1023.5 1395.0938,1023.8906 1395.0938,1024.3438 C1395.0938,1024.7344 1394.7656,1025.1875 1394.1875,1025.5938 C1393.4375,1026.1406 1392.2813,1026.4375 1391.0625,1026.4375 C1388.1719,1026.4375 1386.0625,1024.5469 1386.0625,1021.9688 L1386.0625,1020.8438 C1386.0625,1018.125 1388.0625,1016.0469 1390.6875,1016.0469 C1391.5625,1016.0469 1392.1563,1016.1875 1393.0938,1016.625 Z "/><text fill="#000000" font-family="sans-serif" font-size="12" lengthAdjust="spacingAndGlyphs" textLength="82" x="1411.25" y="1025.1074">Appartement</text><line style="stroke: #A80036; stroke-width: 1.5;" x1="1170.5" x2="1701.5" y1="1036.9531" y2="1036.9531"/><rect fill="none" height="6" style="stroke: #C82930; stroke-width: 1.0;" width="6" x="1177.5" y="1045.8555"/><text fill="#000000" font-family="sans-serif" font-size="11" lengthAdjust="spacingAndGlyphs" textLength="62" x="1189.5" y="1051.1636">int nbPiece</text><rect fill="none" height="6" style="stroke: #C82930; stroke-width: 1.0;" width="6" x="1177.5" y="1058.6602"/><text fill="#000000" font-family="sans-serif" font-size="11" lengthAdjust="spacingAndGlyphs" textLength="50" x="1189.5" y="1063.9683">int etage</text><rect fill="none" height="6" style="stroke: #C82930; stroke-width: 1.0;" width="6" x="1177.5" y="1071.4648"/><text fill="#000000" font-family="sans-serif" font-size="11" lengthAdjust="spacingAndGlyphs" textLength="152" x="1189.5" y="1076.7729">double chargesMensuelles</text><line style="stroke: #A80036; stroke-width: 1.5;" x1="1170.5" x2="1701.5" y1="1083.3672" y2="1083.3672"/><ellipse cx="1180.5" cy="1095.2695" fill="#84BE84" rx="3" ry="3" style="stroke: #038048; stroke-width: 1.0;"/><text fill="#000000" font-family="sans-serif" font-size="11" lengthAdjust="spacingAndGlyphs" textLength="507" x="1189.5" y="1097.5776">void Appartement(String adresse, Orientation orient,int piece, int etage, double charges)</text><!--class RDV--><rect fill="#FEFECE" filter="url(#f17gmf4satftua)" height="73.6094" id="RDV" style="stroke: #A80036; stroke-width: 1.5;" width="125" x="743" y="274.4531"/><ellipse cx="788.75" cy="290.4531" fill="#A9DCDF" rx="11" ry="11" style="stroke: #A80036; stroke-width: 1.0;"/><path d="M790.3281,292.2656 L786.2813,292.2656 L785.8906,293.25 L786.2813,293.25 C786.7344,293.25 786.875,293.2813 787.0469,293.4063 C787.2656,293.5781 787.3906,293.8281 787.3906,294.1094 C787.3906,294.3906 787.25,294.6875 786.9844,294.8281 C786.8594,294.9219 786.6406,294.9531 786.2813,294.9531 L784.0156,294.9531 C783.2656,294.9531 782.8906,294.6719 782.8906,294.1094 C782.8906,293.8125 783.0469,293.5313 783.2969,293.375 C783.4531,293.2656 783.6094,293.25 784.0313,293.25 L786.6719,286.7344 L785.5938,286.7344 C785.1563,286.7344 784.9844,286.7031 784.8125,286.5938 C784.5938,286.4219 784.4531,286.1719 784.4531,285.8906 C784.4531,285.6094 784.6094,285.3281 784.8594,285.1563 C785.0156,285.0625 785.1406,285.0469 785.5938,285.0469 L789.2656,285.0469 L792.6563,293.25 C793.125,293.25 793.2813,293.2813 793.4531,293.4219 C793.6719,293.5781 793.8125,293.8281 793.8125,294.1094 C793.8125,294.3906 793.6563,294.6875 793.4063,294.8281 C793.2656,294.9219 793.0469,294.9531 792.6875,294.9531 L790.3281,294.9531 C789.9063,294.9531 789.7031,294.9063 789.5625,294.7813 C789.3438,294.625 789.2031,294.375 789.2031,294.1094 C789.2031,293.8125 789.3594,293.5313 789.6094,293.375 C789.7656,293.2656 789.875,293.25 790.3281,293.25 L790.7188,293.25 Z M789.625,290.5625 L788.2969,287.2969 L786.9531,290.5625 Z "/><text fill="#000000" font-family="sans-serif" font-size="12" font-style="italic" lengthAdjust="spacingAndGlyphs" textLength="25" x="809.25" y="294.6074">RDV</text><line style="stroke: #A80036; stroke-width: 1.5;" x1="744" x2="867" y1="306.4531" y2="306.4531"/><rect fill="none" height="6" style="stroke: #C82930; stroke-width: 1.0;" width="6" x="751" y="315.3555"/><text fill="#000000" font-family="sans-serif" font-size="11" lengthAdjust="spacingAndGlyphs" textLength="66" x="763" y="320.6636">Client client</text><line style="stroke: #A80036; stroke-width: 1.5;" x1="744" x2="867" y1="327.2578" y2="327.2578"/><ellipse cx="754" cy="339.1602" fill="#84BE84" rx="3" ry="3" style="stroke: #038048; stroke-width: 1.0;"/><text fill="#000000" font-family="sans-serif" font-size="11" lengthAdjust="spacingAndGlyphs" textLength="99" x="763" y="341.4683">void RDV(Client c)</text><!--class RdvMandat--><rect fill="#FEFECE" filter="url(#f17gmf4satftua)" height="60.8047" id="RdvMandat" style="stroke: #A80036; stroke-width: 1.5;" width="150" x="1361" y="331.9531"/><ellipse cx="1398.05" cy="347.9531" fill="#ADD1B2" rx="11" ry="11" style="stroke: #A80036; stroke-width: 1.0;"/><path d="M1400.3938,343.625 L1400.5656,343.7031 C1400.7844,343.3906 1400.9875,343.2969 1401.2844,343.2969 C1401.5813,343.2969 1401.8625,343.4375 1402.0188,343.7031 C1402.1125,343.8594 1402.1281,343.9844 1402.1281,344.4219 L1402.1281,345.8438 C1402.1281,346.2656 1402.0969,346.4531 1401.9875,346.6094 C1401.8156,346.8281 1401.55,346.9688 1401.2844,346.9688 C1401.0656,346.9688 1400.8313,346.8594 1400.6906,346.7188 C1400.55,346.5938 1400.5188,346.4688 1400.4563,346.0625 C1400.3625,345.6563 1400.1906,345.4375 1399.7063,345.1563 C1399.2375,344.9063 1398.6281,344.75 1398.05,344.75 C1396.3156,344.75 1395.0656,346.0625 1395.0656,347.8438 L1395.0656,348.9375 C1395.0656,350.6406 1396.3625,351.7344 1398.4094,351.7344 C1399.175,351.7344 1399.8625,351.6094 1400.2844,351.3438 C1400.4719,351.25 1400.4719,351.25 1400.925,350.7656 C1401.1125,350.5781 1401.3156,350.5 1401.5344,350.5 C1402.0031,350.5 1402.3938,350.8906 1402.3938,351.3438 C1402.3938,351.7344 1402.0656,352.1875 1401.4875,352.5938 C1400.7375,353.1406 1399.5813,353.4375 1398.3625,353.4375 C1395.4719,353.4375 1393.3625,351.5469 1393.3625,348.9688 L1393.3625,347.8438 C1393.3625,345.125 1395.3625,343.0469 1397.9875,343.0469 C1398.8625,343.0469 1399.4563,343.1875 1400.3938,343.625 Z "/><text fill="#000000" font-family="sans-serif" font-size="12" lengthAdjust="spacingAndGlyphs" textLength="69" x="1416.95" y="352.1074">RdvMandat</text><line style="stroke: #A80036; stroke-width: 1.5;" x1="1362" x2="1510" y1="363.9531" y2="363.9531"/><line style="stroke: #A80036; stroke-width: 1.5;" x1="1362" x2="1510" y1="371.9531" y2="371.9531"/><ellipse cx="1372" cy="383.8555" fill="#84BE84" rx="3" ry="3" style="stroke: #038048; stroke-width: 1.0;"/><text fill="#000000" font-family="sans-serif" font-size="11" lengthAdjust="spacingAndGlyphs" textLength="124" x="1381" y="386.1636">Mandat creerMandat()</text><!--class RdvPromesseVente--><rect fill="#FEFECE" filter="url(#f17gmf4satftua)" height="60.8047" id="RdvPromesseVente" style="stroke: #A80036; stroke-width: 1.5;" width="171" x="1350.5" y="235.9531"/><ellipse cx="1373.6" cy="251.9531" fill="#ADD1B2" rx="11" ry="11" style="stroke: #A80036; stroke-width: 1.0;"/><path d="M1375.9438,247.625 L1376.1156,247.7031 C1376.3344,247.3906 1376.5375,247.2969 1376.8344,247.2969 C1377.1313,247.2969 1377.4125,247.4375 1377.5688,247.7031 C1377.6625,247.8594 1377.6781,247.9844 1377.6781,248.4219 L1377.6781,249.8438 C1377.6781,250.2656 1377.6469,250.4531 1377.5375,250.6094 C1377.3656,250.8281 1377.1,250.9688 1376.8344,250.9688 C1376.6156,250.9688 1376.3813,250.8594 1376.2406,250.7188 C1376.1,250.5938 1376.0688,250.4688 1376.0063,250.0625 C1375.9125,249.6563 1375.7406,249.4375 1375.2563,249.1563 C1374.7875,248.9063 1374.1781,248.75 1373.6,248.75 C1371.8656,248.75 1370.6156,250.0625 1370.6156,251.8438 L1370.6156,252.9375 C1370.6156,254.6406 1371.9125,255.7344 1373.9594,255.7344 C1374.725,255.7344 1375.4125,255.6094 1375.8344,255.3438 C1376.0219,255.25 1376.0219,255.25 1376.475,254.7656 C1376.6625,254.5781 1376.8656,254.5 1377.0844,254.5 C1377.5531,254.5 1377.9438,254.8906 1377.9438,255.3438 C1377.9438,255.7344 1377.6156,256.1875 1377.0375,256.5938 C1376.2875,257.1406 1375.1313,257.4375 1373.9125,257.4375 C1371.0219,257.4375 1368.9125,255.5469 1368.9125,252.9688 L1368.9125,251.8438 C1368.9125,249.125 1370.9125,247.0469 1373.5375,247.0469 C1374.4125,247.0469 1375.0063,247.1875 1375.9438,247.625 Z "/><text fill="#000000" font-family="sans-serif" font-size="12" lengthAdjust="spacingAndGlyphs" textLength="121" x="1389.4" y="256.1074">RdvPromesseVente</text><line style="stroke: #A80036; stroke-width: 1.5;" x1="1351.5" x2="1520.5" y1="267.9531" y2="267.9531"/><line style="stroke: #A80036; stroke-width: 1.5;" x1="1351.5" x2="1520.5" y1="275.9531" y2="275.9531"/><ellipse cx="1361.5" cy="287.8555" fill="#84BE84" rx="3" ry="3" style="stroke: #038048; stroke-width: 1.0;"/><text fill="#000000" font-family="sans-serif" font-size="11" lengthAdjust="spacingAndGlyphs" textLength="145" x="1370.5" y="290.1636">void setAcheteur(Client c)</text><!--class RdvRecherche--><rect fill="#FEFECE" filter="url(#f17gmf4satftua)" height="60.8047" id="RdvRecherche" style="stroke: #A80036; stroke-width: 1.5;" width="242" x="1315" y="139.9531"/><ellipse cx="1387.25" cy="155.9531" fill="#ADD1B2" rx="11" ry="11" style="stroke: #A80036; stroke-width: 1.0;"/><path d="M1389.5938,151.625 L1389.7656,151.7031 C1389.9844,151.3906 1390.1875,151.2969 1390.4844,151.2969 C1390.7813,151.2969 1391.0625,151.4375 1391.2188,151.7031 C1391.3125,151.8594 1391.3281,151.9844 1391.3281,152.4219 L1391.3281,153.8438 C1391.3281,154.2656 1391.2969,154.4531 1391.1875,154.6094 C1391.0156,154.8281 1390.75,154.9688 1390.4844,154.9688 C1390.2656,154.9688 1390.0313,154.8594 1389.8906,154.7188 C1389.75,154.5938 1389.7188,154.4688 1389.6563,154.0625 C1389.5625,153.6563 1389.3906,153.4375 1388.9063,153.1563 C1388.4375,152.9063 1387.8281,152.75 1387.25,152.75 C1385.5156,152.75 1384.2656,154.0625 1384.2656,155.8438 L1384.2656,156.9375 C1384.2656,158.6406 1385.5625,159.7344 1387.6094,159.7344 C1388.375,159.7344 1389.0625,159.6094 1389.4844,159.3438 C1389.6719,159.25 1389.6719,159.25 1390.125,158.7656 C1390.3125,158.5781 1390.5156,158.5 1390.7344,158.5 C1391.2031,158.5 1391.5938,158.8906 1391.5938,159.3438 C1391.5938,159.7344 1391.2656,160.1875 1390.6875,160.5938 C1389.9375,161.1406 1388.7813,161.4375 1387.5625,161.4375 C1384.6719,161.4375 1382.5625,159.5469 1382.5625,156.9688 L1382.5625,155.8438 C1382.5625,153.125 1384.5625,151.0469 1387.1875,151.0469 C1388.0625,151.0469 1388.6563,151.1875 1389.5938,151.625 Z "/><text fill="#000000" font-family="sans-serif" font-size="12" lengthAdjust="spacingAndGlyphs" textLength="89" x="1407.75" y="160.1074">RdvRecherche</text><line style="stroke: #A80036; stroke-width: 1.5;" x1="1316" x2="1556" y1="171.9531" y2="171.9531"/><line style="stroke: #A80036; stroke-width: 1.5;" x1="1316" x2="1556" y1="179.9531" y2="179.9531"/><ellipse cx="1326" cy="191.8555" fill="#84BE84" rx="3" ry="3" style="stroke: #038048; stroke-width: 1.0;"/><text fill="#000000" font-family="sans-serif" font-size="11" lengthAdjust="spacingAndGlyphs" textLength="216" x="1335" y="194.1636">ArrayList&lt;Biens&gt; rechercher(Client c)</text><!--class Mandat--><rect fill="#FEFECE" filter="url(#f17gmf4satftua)" height="112.0234" id="Mandat" style="stroke: #A80036; stroke-width: 1.5;" width="179" x="716" y="754.4531"/><ellipse cx="777.75" cy="770.4531" fill="#ADD1B2" rx="11" ry="11" style="stroke: #A80036; stroke-width: 1.0;"/><path d="M780.0938,766.125 L780.2656,766.2031 C780.4844,765.8906 780.6875,765.7969 780.9844,765.7969 C781.2813,765.7969 781.5625,765.9375 781.7188,766.2031 C781.8125,766.3594 781.8281,766.4844 781.8281,766.9219 L781.8281,768.3438 C781.8281,768.7656 781.7969,768.9531 781.6875,769.1094 C781.5156,769.3281 781.25,769.4688 780.9844,769.4688 C780.7656,769.4688 780.5313,769.3594 780.3906,769.2188 C780.25,769.0938 780.2188,768.9688 780.1563,768.5625 C780.0625,768.1563 779.8906,767.9375 779.4063,767.6563 C778.9375,767.4063 778.3281,767.25 777.75,767.25 C776.0156,767.25 774.7656,768.5625 774.7656,770.3438 L774.7656,771.4375 C774.7656,773.1406 776.0625,774.2344 778.1094,774.2344 C778.875,774.2344 779.5625,774.1094 779.9844,773.8438 C780.1719,773.75 780.1719,773.75 780.625,773.2656 C780.8125,773.0781 781.0156,773 781.2344,773 C781.7031,773 782.0938,773.3906 782.0938,773.8438 C782.0938,774.2344 781.7656,774.6875 781.1875,775.0938 C780.4375,775.6406 779.2813,775.9375 778.0625,775.9375 C775.1719,775.9375 773.0625,774.0469 773.0625,771.4688 L773.0625,770.3438 C773.0625,767.625 775.0625,765.5469 777.6875,765.5469 C778.5625,765.5469 779.1563,765.6875 780.0938,766.125 Z "/><text fill="#000000" font-family="sans-serif" font-size="12" lengthAdjust="spacingAndGlyphs" textLength="47" x="798.25" y="774.6074">Mandat</text><line style="stroke: #A80036; stroke-width: 1.5;" x1="717" x2="894" y1="786.4531" y2="786.4531"/><rect fill="none" height="6" style="stroke: #C82930; stroke-width: 1.0;" width="6" x="724" y="795.3555"/><text fill="#000000" font-family="sans-serif" font-size="11" lengthAdjust="spacingAndGlyphs" textLength="71" x="736" y="800.6636">Bien maison</text><rect fill="none" height="6" style="stroke: #C82930; stroke-width: 1.0;" width="6" x="724" y="808.1602"/><text fill="#000000" font-family="sans-serif" font-size="11" lengthAdjust="spacingAndGlyphs" textLength="82" x="736" y="813.4683">Client vendeur</text><rect fill="none" height="6" style="stroke: #C82930; stroke-width: 1.0;" width="6" x="724" y="820.9648"/><text fill="#000000" font-family="sans-serif" font-size="11" lengthAdjust="spacingAndGlyphs" textLength="63" x="736" y="826.2729">Date butoir</text><rect fill="none" height="6" style="stroke: #C82930; stroke-width: 1.0;" width="6" x="724" y="833.7695"/><text fill="#000000" font-family="sans-serif" font-size="11" lengthAdjust="spacingAndGlyphs" textLength="123" x="736" y="839.0776">Client acheteur = null</text><rect fill="none" height="6" style="stroke: #C82930; stroke-width: 1.0;" width="6" x="724" y="846.5742"/><text fill="#000000" font-family="sans-serif" font-size="11" lengthAdjust="spacingAndGlyphs" textLength="153" x="736" y="851.8823">boolean sommeTotalVerse</text><line style="stroke: #A80036; stroke-width: 1.5;" x1="717" x2="894" y1="858.4766" y2="858.4766"/><!--class TypePub--><rect fill="#FEFECE" filter="url(#f17gmf4satftua)" height="99.2188" id="TypePub" style="stroke: #A80036; stroke-width: 1.5;" width="85" x="763" y="468.9531"/><ellipse cx="778" cy="484.9531" fill="#EB937F" rx="11" ry="11" style="stroke: #A80036; stroke-width: 1.0;"/><path d="M776.2969,485.8281 L776.2969,488.25 L780.6563,488.25 L780.6563,487.375 C780.6563,486.8906 780.6875,486.75 780.7969,486.5938 C780.9688,486.3438 781.2344,486.2344 781.5,486.2344 C781.7813,486.2344 782.0625,486.3906 782.2344,486.6406 C782.3125,486.7969 782.3438,486.9375 782.3438,487.375 L782.3438,489.9531 L774.3438,489.9531 C773.9531,489.9531 773.7188,489.9063 773.5781,489.7813 C773.3594,489.625 773.2188,489.375 773.2188,489.1094 C773.2188,488.8125 773.375,488.5469 773.625,488.375 C773.7813,488.2656 773.9375,488.25 774.3438,488.25 L774.5938,488.25 L774.5938,481.7344 L774.3438,481.7344 C773.9219,481.7344 773.7344,481.7031 773.5781,481.5938 C773.3594,481.4219 773.2188,481.1719 773.2188,480.8906 C773.2188,480.6094 773.375,480.3125 773.625,480.1563 C773.7813,480.0625 773.9063,480.0469 774.3438,480.0469 L781.9688,480.0469 L781.9688,482.5938 C781.9688,483.0625 781.9375,483.2031 781.8281,483.375 C781.6563,483.5938 781.3906,483.7344 781.125,483.7344 C780.8438,483.7344 780.5625,483.5781 780.3906,483.3281 C780.3125,483.1719 780.2813,483 780.2813,482.5938 L780.2813,481.7344 L776.2969,481.7344 L776.2969,484.1406 L777.75,484.1406 L777.75,484.0156 C777.75,483.5625 777.7813,483.4063 777.8906,483.2344 C778.0625,483.0156 778.3281,482.875 778.5781,482.875 C779.0313,482.875 779.3438,483.1875 779.4063,483.6563 C779.4219,483.8125 779.4219,483.8594 779.4219,484.0156 L779.4219,485.9375 C779.4219,486.3906 779.3906,486.5469 779.2656,486.7031 C779.1094,486.9219 778.8438,487.0625 778.5938,487.0625 C778.2969,487.0625 778.0156,486.9063 777.8594,486.6563 C777.7813,486.5 777.75,486.3438 777.75,485.9375 L777.75,485.8281 Z "/><text fill="#000000" font-family="sans-serif" font-size="12" lengthAdjust="spacingAndGlyphs" textLength="53" x="792" y="489.1074">TypePub</text><line style="stroke: #A80036; stroke-width: 1.5;" x1="764" x2="847" y1="500.9531" y2="500.9531"/><text fill="#000000" font-family="sans-serif" font-size="11" lengthAdjust="spacingAndGlyphs" textLength="30" x="769" y="515.1636">HTML</text><text fill="#000000" font-family="sans-serif" font-size="11" lengthAdjust="spacingAndGlyphs" textLength="34" x="769" y="527.9683">VIDEO</text><text fill="#000000" font-family="sans-serif" font-size="11" lengthAdjust="spacingAndGlyphs" textLength="35" x="769" y="540.7729">IMAGE</text><text fill="#000000" font-family="sans-serif" font-size="11" lengthAdjust="spacingAndGlyphs" textLength="35" x="769" y="553.5776">TEXTE</text><line style="stroke: #A80036; stroke-width: 1.5;" x1="764" x2="847" y1="560.1719" y2="560.1719"/><!--class Publicites--><rect fill="#FEFECE" filter="url(#f17gmf4satftua)" height="99.2188" id="Publicites" style="stroke: #A80036; stroke-width: 1.5;" width="325" x="643" y="619.9531"/><ellipse cx="771.25" cy="635.9531" fill="#ADD1B2" rx="11" ry="11" style="stroke: #A80036; stroke-width: 1.0;"/><path d="M773.5938,631.625 L773.7656,631.7031 C773.9844,631.3906 774.1875,631.2969 774.4844,631.2969 C774.7813,631.2969 775.0625,631.4375 775.2188,631.7031 C775.3125,631.8594 775.3281,631.9844 775.3281,632.4219 L775.3281,633.8438 C775.3281,634.2656 775.2969,634.4531 775.1875,634.6094 C775.0156,634.8281 774.75,634.9688 774.4844,634.9688 C774.2656,634.9688 774.0313,634.8594 773.8906,634.7188 C773.75,634.5938 773.7188,634.4688 773.6563,634.0625 C773.5625,633.6563 773.3906,633.4375 772.9063,633.1563 C772.4375,632.9063 771.8281,632.75 771.25,632.75 C769.5156,632.75 768.2656,634.0625 768.2656,635.8438 L768.2656,636.9375 C768.2656,638.6406 769.5625,639.7344 771.6094,639.7344 C772.375,639.7344 773.0625,639.6094 773.4844,639.3438 C773.6719,639.25 773.6719,639.25 774.125,638.7656 C774.3125,638.5781 774.5156,638.5 774.7344,638.5 C775.2031,638.5 775.5938,638.8906 775.5938,639.3438 C775.5938,639.7344 775.2656,640.1875 774.6875,640.5938 C773.9375,641.1406 772.7813,641.4375 771.5625,641.4375 C768.6719,641.4375 766.5625,639.5469 766.5625,636.9688 L766.5625,635.8438 C766.5625,633.125 768.5625,631.0469 771.1875,631.0469 C772.0625,631.0469 772.6563,631.1875 773.5938,631.625 Z "/><text fill="#000000" font-family="sans-serif" font-size="12" lengthAdjust="spacingAndGlyphs" textLength="60" x="791.75" y="640.1074">Publicites</text><line style="stroke: #A80036; stroke-width: 1.5;" x1="644" x2="967" y1="651.9531" y2="651.9531"/><rect fill="none" height="6" style="stroke: #C82930; stroke-width: 1.0;" width="6" x="651" y="660.8555"/><text fill="#000000" font-family="sans-serif" font-size="11" lengthAdjust="spacingAndGlyphs" textLength="90" x="663" y="666.1636">TypePub typPub</text><rect fill="none" height="6" style="stroke: #C82930; stroke-width: 1.0;" width="6" x="651" y="673.6602"/><text fill="#000000" font-family="sans-serif" font-size="11" lengthAdjust="spacingAndGlyphs" textLength="108" x="663" y="678.9683">Bien bienConserne</text><rect fill="none" height="6" style="stroke: #C82930; stroke-width: 1.0;" width="6" x="651" y="686.4648"/><text fill="#000000" font-family="sans-serif" font-size="11" lengthAdjust="spacingAndGlyphs" textLength="58" x="663" y="691.7729">String lien</text><line style="stroke: #A80036; stroke-width: 1.5;" x1="644" x2="967" y1="698.3672" y2="698.3672"/><ellipse cx="654" cy="710.2695" fill="#84BE84" rx="3" ry="3" style="stroke: #038048; stroke-width: 1.0;"/><text fill="#000000" font-family="sans-serif" font-size="11" lengthAdjust="spacingAndGlyphs" textLength="299" x="663" y="712.5776">void Publicites(TypePub type, Bien bienC, String link)</text><!--entity Vue--><polygon fill="#FFFFFF" filter="url(#f17gmf4satftua)" points="29,1358.9531,62,1358.9531,69,1381.25,86,1381.25,86,1398.25,29,1398.25,29,1358.9531" style="stroke: #000000; stroke-width: 1.5;"/><line style="stroke: #000000; stroke-width: 1.5;" x1="29" x2="69" y1="1381.25" y2="1381.25"/><text fill="#000000" font-family="sans-serif" font-size="14" lengthAdjust="spacingAndGlyphs" textLength="27" x="33" y="1374.9482">Vue</text><!--entity Controleur--><polygon fill="#FFFFFF" filter="url(#f17gmf4satftua)" points="6,1449.9531,85,1449.9531,92,1472.25,109,1472.25,109,1489.25,6,1489.25,6,1449.9531" style="stroke: #000000; stroke-width: 1.5;"/><line style="stroke: #000000; stroke-width: 1.5;" x1="6" x2="92" y1="1472.25" y2="1472.25"/><text fill="#000000" font-family="sans-serif" font-size="14" lengthAdjust="spacingAndGlyphs" textLength="73" x="10" y="1465.9482">Controleur</text><!--link Client to ClientPhysique--><path d="M1653.97,874.7051 C1715.92,877.0621 1783.51,879.6321 1845.77,882.0011 " fill="none" id="Client-ClientPhysique" style="stroke: #A80036; stroke-width: 1.0;"/><polygon fill="none" points="1653.34,881.6871,1633.63,873.9321,1653.88,867.6971,1653.34,881.6871" style="stroke: #A80036; stroke-width: 1.0;"/><!--link Client to ClientMoral--><path d="M1653.52,837.2861 C1746.29,824.7901 1851.76,810.5821 1933.09,799.6261 " fill="none" id="Client-ClientMoral" style="stroke: #A80036; stroke-width: 1.0;"/><polygon fill="none" points="1654.38,844.2341,1633.63,839.9661,1652.51,830.3591,1654.38,844.2341" style="stroke: #A80036; stroke-width: 1.0;"/><!--link Bien to Terrain--><path d="M964.802,1250.6781 C1005.132,1261.4721 1048.52,1272.4591 1089,1281.4531 C1117.43,1287.7711 1147.3,1293.8541 1177.07,1299.5701 " fill="none" id="Bien-Terrain" style="stroke: #A80036; stroke-width: 1.0;"/><polygon fill="none" points="962.758,1257.3771,945.276,1245.4041,966.409,1243.8611,962.758,1257.3771" style="stroke: #A80036; stroke-width: 1.0;"/><!--link Bien to Maison--><path d="M965.383,1204.4421 C1003.578,1204.1991 1045.86,1203.9301 1088.96,1203.6551 " fill="none" id="Bien-Maison" style="stroke: #A80036; stroke-width: 1.0;"/><polygon fill="none" points="965.249,1211.4431,945.205,1204.5701,965.16,1197.4431,965.249,1211.4431" style="stroke: #A80036; stroke-width: 1.0;"/><!--link Bien to Appartement--><path d="M964.391,1155.5411 C1004.802,1143.5851 1048.33,1131.4111 1089,1121.4531 C1115,1115.0861 1142.22,1108.9391 1169.48,1103.1221 " fill="none" id="Bien-Appartement" style="stroke: #A80036; stroke-width: 1.0;"/><polygon fill="none" points="966.308,1162.2751,945.141,1161.2891,962.302,1148.8601,966.308,1162.2751" style="stroke: #A80036; stroke-width: 1.0;"/><!--link Terrain to Maison--><path d="M1436,1286.0411 C1436,1278.7221 1436,1271.4021 1436,1264.0831 " fill="none" id="Terrain-Maison" style="stroke: #A80036; stroke-width: 1.0;"/><polygon fill="#FFFFFF" points="1436,1299.2171,1440,1293.2171,1436,1287.2171,1432,1293.2171,1436,1299.2171" style="stroke: #A80036; stroke-width: 1.0;"/><text fill="#000000" font-family="sans-serif" font-size="13" lengthAdjust="spacingAndGlyphs" textLength="19" x="1415.9609" y="1283.8372">0.*</text><!--link RDV to RdvMandat--><path d="M888.442,318.1031 C1011.58,328.0931 1242.51,346.8331 1360.89,356.4431 " fill="none" id="RDV-RdvMandat" style="stroke: #A80036; stroke-width: 1.0;"/><polygon fill="none" points="887.563,325.0531,868.195,316.4631,888.696,311.1031,887.563,325.0531" style="stroke: #A80036; stroke-width: 1.0;"/><!--link RDV to RdvPromesseVente--><path d="M888.23,305.6031 C1007.77,297.0431 1229.2,281.1831 1350.37,272.5131 " fill="none" id="RDV-RdvPromesseVente" style="stroke: #A80036; stroke-width: 1.0;"/><polygon fill="none" points="888.644,312.5931,868.195,307.0331,887.644,298.6231,888.644,312.5931" style="stroke: #A80036; stroke-width: 1.0;"/><!--link RDV to RdvRecherche--><path d="M887.011,280.6431 C942.94,260.3131 1019.6,234.5531 1089,218.4531 C1163.14,201.2531 1247.74,189.3831 1314.73,181.7531 " fill="none" id="RDV-RdvRecherche" style="stroke: #A80036; stroke-width: 1.0;"/><polygon fill="none" points="889.325,287.2531,868.138,287.5831,884.493,274.1131,889.325,287.2531" style="stroke: #A80036; stroke-width: 1.0;"/><!--link Vue to Modele--><path d="M86.0336,1383.2381 C104.9835,1386.5311 132.1068,1391.2444 162.2332,1396.4796 C177.2964,1399.0972 193.1103,1401.8453 209.0287,1404.6115 C210.0236,1404.7844 211.0189,1404.9573 212.0144,1405.1303 " fill="none" id="Vue-Modele" style="stroke: #A80036; stroke-width: 1.0;"/><polygon fill="#A80036" points="212.0144,1405.1303,203.8322,1399.6485,207.0883,1404.2743,202.4625,1407.5304,212.0144,1405.1303" style="stroke: #A80036; stroke-width: 1.0;"/><text fill="#000000" font-family="sans-serif" font-size="13" lengthAdjust="spacingAndGlyphs" textLength="35" x="146.5" y="1388.52">READ</text><!--link Vue to Controleur--><path d="M57.5,1398.1602 C57.5,1411.7458 57.5,1429.9126 57.5,1444.5072 " fill="none" id="Vue-Controleur" style="stroke: #A80036; stroke-width: 1.0;"/><polygon fill="#A80036" points="57.5,1449.7075,61.5,1440.7075,57.5,1444.7075,53.5,1440.7075,57.5,1449.7075" style="stroke: #A80036; stroke-width: 1.0;"/><text fill="#000000" font-family="sans-serif" font-size="13" lengthAdjust="spacingAndGlyphs" textLength="37" x="27.5" y="1428.52">WRITE</text><!--link Controleur to Modele--><path d="M109,1463.709 C152.9805,1458.7065 218.1058,1451.2989 272.9073,1445.0656 C279.7574,1444.2864 286.4463,1443.5256 292.9124,1442.7901 C296.1455,1442.4224 299.3228,1442.061 302.4368,1441.7068 C302.8261,1441.6625 303.2143,1441.6183 303.6016,1441.5743 " fill="none" id="Controleur-Modele" style="stroke: #A80036; stroke-width: 1.0;"/><polygon fill="#A80036" points="303.6016,1441.5743,294.2072,1438.6171,298.6336,1442.1394,295.1113,1446.5658,303.6016,1441.5743" style="stroke: #A80036; stroke-width: 1.0;"/><text fill="#000000" font-family="sans-serif" font-size="13" lengthAdjust="spacingAndGlyphs" textLength="48" x="140" y="1450.52">MODIFY</text><!--link MyAgencyManager to Mandat--><path d="M495.987,759.9361 C565.66,771.3451 652.174,785.5111 715.842,795.9361 " fill="none" id="MyAgencyManager-Mandat" style="stroke: #A80036; stroke-width: 1.0;"/><polygon fill="#A80036" points="491.001,759.1201,499.2357,764.5229,495.9352,759.9287,500.5294,756.6282,491.001,759.1201" style="stroke: #A80036; stroke-width: 1.0;"/><text fill="#000000" font-family="sans-serif" font-size="13" lengthAdjust="spacingAndGlyphs" textLength="81" x="526.5" y="760.52">listeMandats</text><text fill="#000000" font-family="sans-serif" font-size="13" lengthAdjust="spacingAndGlyphs" textLength="8" x="498.9964" y="772.9422">1</text><text fill="#000000" font-family="sans-serif" font-size="13" lengthAdjust="spacingAndGlyphs" textLength="7" x="701.1274" y="807.4265">*</text><!--link MyAgencyManager to Client--><path d="M495.778,783.0751 C502.429,786.6411 508.887,790.4341 515,794.4531 C569.884,830.5361 558.377,874.1721 619,899.4531 C817.743,982.3331 1067.87,955.2591 1238.47,919.5241 " fill="none" id="MyAgencyManager-Client" style="stroke: #A80036; stroke-width: 1.0;"/><polygon fill="#A80036" points="491.145,780.6411,497.2542,788.3663,495.572,782.9653,500.9729,781.2831,491.145,780.6411" style="stroke: #A80036; stroke-width: 1.0;"/><text fill="#000000" font-family="sans-serif" font-size="13" lengthAdjust="spacingAndGlyphs" textLength="69" x="771" y="895.52">listeClients</text><text fill="#000000" font-family="sans-serif" font-size="13" lengthAdjust="spacingAndGlyphs" textLength="8" x="499.1501" y="795.9092">1</text><text fill="#000000" font-family="sans-serif" font-size="13" lengthAdjust="spacingAndGlyphs" textLength="7" x="1223.6173" y="933.963">*</text><!--link MyAgencyManager to RDV--><path d="M416.577,686.4321 C462.029,626.1351 540.483,527.2221 619,452.4531 C659.719,413.6731 710.908,375.4431 749.193,348.5931 " fill="none" id="MyAgencyManager-RDV" style="stroke: #A80036; stroke-width: 1.0;"/><polygon fill="#A80036" points="413.362,690.7061,421.9688,685.9184,416.3677,686.7104,415.5757,681.1093,413.362,690.7061" style="stroke: #A80036; stroke-width: 1.0;"/><text fill="#000000" font-family="sans-serif" font-size="13" lengthAdjust="spacingAndGlyphs" textLength="56" x="539" y="462.52">listeRdvs</text><text fill="#000000" font-family="sans-serif" font-size="13" lengthAdjust="spacingAndGlyphs" textLength="8" x="410.0535" y="679.7166">1</text><text fill="#000000" font-family="sans-serif" font-size="13" lengthAdjust="spacingAndGlyphs" textLength="7" x="732.2875" y="368.0969">*</text><!--link MyAgencyManager to Publicites--><path d="M495.935,720.7001 C541.337,713.1601 593.897,704.4301 642.628,696.3371 " fill="none" id="MyAgencyManager-Publicites" style="stroke: #A80036; stroke-width: 1.0;"/><polygon fill="#A80036" points="491.001,721.5201,500.5351,723.9901,495.9333,720.7002,499.2232,716.0984,491.001,721.5201" style="stroke: #A80036; stroke-width: 1.0;"/><text fill="#000000" font-family="sans-serif" font-size="13" lengthAdjust="spacingAndGlyphs" textLength="86" x="524" y="698.52">listePublicites</text><text fill="#000000" font-family="sans-serif" font-size="13" lengthAdjust="spacingAndGlyphs" textLength="8" x="498.9964" y="732.816">1</text><text fill="#000000" font-family="sans-serif" font-size="13" lengthAdjust="spacingAndGlyphs" textLength="7" x="628.0893" y="709.9601">*</text><!--link Client to Recherche--><path d="M1436,790.8921 C1436,778.1891 1436,764.9541 1436,752.1061 " fill="none" id="Client-Recherche" style="stroke: #A80036; stroke-width: 1.0;"/><polygon fill="#FFFFFF" points="1436,803.8981,1440,797.8981,1436,791.8981,1432,797.8981,1436,803.8981" style="stroke: #A80036; stroke-width: 1.0;"/><text fill="#000000" font-family="sans-serif" font-size="13" lengthAdjust="spacingAndGlyphs" textLength="47" x="1401" y="782.52">souhait</text><text fill="#000000" font-family="sans-serif" font-size="13" lengthAdjust="spacingAndGlyphs" textLength="8" x="1427.5375" y="792.8825">1</text><text fill="#000000" font-family="sans-serif" font-size="13" lengthAdjust="spacingAndGlyphs" textLength="8" x="1427.6313" y="772.3868">1</text><!--link Mandat to Client--><path d="M907.65,848.0881 C937.016,857.2911 969.42,865.8211 1000,870.4531 C1077.38,882.1741 1163.39,883.7511 1238.36,881.4751 " fill="none" id="Mandat-Client" style="stroke: #A80036; stroke-width: 1.0;"/><polygon fill="#FFFFFF" points="895.265,844.1121,899.7548,849.755,906.6904,847.7808,902.2006,842.138,895.265,844.1121" style="stroke: #A80036; stroke-width: 1.0;"/><text fill="#000000" font-family="sans-serif" font-size="13" lengthAdjust="spacingAndGlyphs" textLength="52" x="1003.5" y="866.52">vendeur</text><text fill="#000000" font-family="sans-serif" font-size="13" lengthAdjust="spacingAndGlyphs" textLength="8" x="903.0299" y="859.592">1</text><text fill="#000000" font-family="sans-serif" font-size="13" lengthAdjust="spacingAndGlyphs" textLength="8" x="1222.4834" y="894.4277">1</text><!--link Mandat to Client--><path d="M908.295,819.5231 C997.243,827.4481 1128.9,839.1791 1238.33,848.9301 " fill="none" id="Mandat-Client" style="stroke: #A80036; stroke-width: 1.0;"/><polygon fill="#FFFFFF" points="895.216,818.3581,900.8377,822.8744,907.1687,819.4222,901.5471,814.9059,895.216,818.3581" style="stroke: #A80036; stroke-width: 1.0;"/><text fill="#000000" font-family="sans-serif" font-size="13" lengthAdjust="spacingAndGlyphs" textLength="57" x="1001" y="824.52">acheteur</text><text fill="#000000" font-family="sans-serif" font-size="13" lengthAdjust="spacingAndGlyphs" textLength="8" x="902.9769" y="831.7053">1</text><text fill="#000000" font-family="sans-serif" font-size="13" lengthAdjust="spacingAndGlyphs" textLength="20" x="1210.2179" y="860.6114">0.1</text><!--link Mandat to Bien--><path d="M703.635,836.9071 C672.64,849.4691 640.995,867.5961 619,893.4531 C559.151,963.8091 569.392,993.7651 582.5,1048.9531 C590.837,1084.0521 592.946,1096.5011 619,1121.4531 C632.849,1134.7161 649.154,1146.1221 666.262,1155.8631 " fill="none" id="Mandat-Bien" style="stroke: #A80036; stroke-width: 1.0;"/><polygon fill="#FFFFFF" points="715.919,832.1931,708.8843,830.6078,704.7153,836.4916,711.75,838.0769,715.919,832.1931" style="stroke: #A80036; stroke-width: 1.0;"/><text fill="#000000" font-family="sans-serif" font-size="13" lengthAdjust="spacingAndGlyphs" textLength="45" x="544.5" y="1045.02">Maison</text><text fill="#000000" font-family="sans-serif" font-size="13" lengthAdjust="spacingAndGlyphs" textLength="8" x="699.8769" y="846.7775">1</text><text fill="#000000" font-family="sans-serif" font-size="13" lengthAdjust="spacingAndGlyphs" textLength="8" x="649.9811" y="1149.627">1</text><!--link Bien to Orientation--><path d="M805.5,1150.4861 C805.5,1135.2841 805.5,1118.8791 805.5,1104.0051 " fill="none" id="Bien-Orientation" style="stroke: #A80036; stroke-width: 1.0;"/><polygon fill="#A80036" points="805.5,1155.5911,809.5,1146.5911,805.5,1150.5911,801.5,1146.5911,805.5,1155.5911" style="stroke: #A80036; stroke-width: 1.0;"/><text fill="#000000" font-family="sans-serif" font-size="13" lengthAdjust="spacingAndGlyphs" textLength="37" x="775.5" y="1134.52">orient</text><!--link Publicites to TypePub--><path d="M805.5,614.4861 C805.5,599.2841 805.5,582.8791 805.5,568.0051 " fill="none" id="Publicites-TypePub" style="stroke: #A80036; stroke-width: 1.0;"/><polygon fill="#A80036" points="805.5,619.5911,809.5,610.5911,805.5,614.5911,801.5,610.5911,805.5,619.5911" style="stroke: #A80036; stroke-width: 1.0;"/><text fill="#000000" font-family="sans-serif" font-size="13" lengthAdjust="spacingAndGlyphs" textLength="44" x="772" y="598.52">typPub</text><!--
@startuml
title Diagramme des Classes vue Modele

package Modele <<Folder>> {

    package modeleAgence<<Frame>> {
        class MyAgencyManager {
        -ArrayList<Client> listeClients
        -ArrayList<Mandat> listeMandats
        -ArrayList<Publicites> listePublicites
        -ArrayList<RDV> listeRdvs
        }
    }
    package modeleClient <<Frame>> {
        abstract Client {
            -String nom
          -String adresse
          -String numTel
          -String mail
          -Recherche souhait
          +void Client(String nom,String adresse,String numTel,String mail)

        }
        class ClientPhysique extends Client{
            +void ClientPhysique(String nom,String adresse,String numTel,String mail)
        }
    
        class ClientMoral extends Client{
            -String formeJuridique
            -String nSIREN
            +void ClientMoral(String juridic, String siren)
        }
        
        class Recherche{
            -Orientation orient
            -double surfaceTotale
            -double longueurFacade
            -double surfaceHabitable
            -int nbEtage
            -String moyenChauff
            -int nbPiece
            -int etage
            -double chargesMensuelles
        }
    }

    package modeleBien <<Frame>> {
        enum Orientation{
            NORD
            SUD
            EST
            OUEST
         }
        abstract Bien {
            -int id
            -String adresse
            -Orientation orient
            +void Bien(String adresse, Orientation orient) 
        }
        class Terrain extends Bien{
            -double surfaceTotale
            -double longueurFacade
            +void Terrain(String adresse, Orientation orient,double surfaceTotal, double lgrFacade)
        }
        class Maison extends Bien{
            -Terrain terrain
            -double surfaceHabitable
            -int nbPiece
            -int nbEtage
            -String moyenChauff
            +void Maison(String adresse, Orientation orient,double surfaceHabit, int piece, int etage, String chauff,Terrain terrain)
        }
        class Appartement extends Bien{
            -int nbPiece
            -int etage
            -double chargesMensuelles
            +void Appartement(String adresse, Orientation orient,int piece, int etage, double charges)
        }
        Terrain  o- "0.*" Maison
    }

    package modeleRDV <<Frame>> {
        abstract RDV{
            -Client client
            +void RDV(Client c)
        }

        class RdvMandat extends RDV{
            +Mandat creerMandat()
        }

        class RdvPromesseVente extends RDV{
            +void setAcheteur(Client c)
        }

        class RdvRecherche extends RDV{
            +ArrayList<Biens> rechercher(Client c)
        }

    }

    package modeleAutres <<Frame>> {
	
        class Mandat{
            -Bien maison
            -Client vendeur
            -Date butoir
            -Client acheteur = null
            -boolean sommeTotalVerse
        }
		enum TypePub{
		    HTML
		    VIDEO
		    IMAGE
		    TEXTE
		}
        class Publicites{
            -TypePub typPub
            -Bien bienConserne
            -String lien
            +void Publicites(TypePub type, Bien bienC, String link)
        }
        
		
    }
}


package Vue <<Folder>> {
}

package Controleur <<Folder>> {
}

Vue - -> Modele : READ
Vue -> Controleur : WRITE
Controleur -> Modele : MODIFY

MyAgencyManager"1" <- - "*" Mandat : listeMandats
MyAgencyManager "1" <- - - "*" Client :listeClients
MyAgencyManager "1" <- - "*" RDV : listeRdvs
MyAgencyManager "1" <- - "*" Publicites : listePublicites

left to right direction

Client "1" o- "1" Recherche : souhait

Mandat "1" o- "1" Client : vendeur
Mandat "1" o- "0.1" Client : acheteur
    
Mandat "1" o- "1" Bien : Maison
    
Bien <- Orientation : orient
Publicites <- TypePub : typPub
@enduml

PlantUML version 1.2017.20(Mon Dec 11 16:57:05 UTC 2017)
(GPL source distribution)
Java Runtime: Java(TM) SE Runtime Environment
JVM: Java HotSpot(TM) 64-Bit Server VM
Java Version: 1.7.0_25-b15
Operating System: Linux
Default Encoding: UTF-8
Language: en
Country: US
--></g></svg>